<?xml version="1.0" encoding="UTF-8" standalone="no"?>
<!-- Created with Inkscape (http://www.inkscape.org/) -->

<svg
   width="64"
   height="64"
   viewBox="0 0 64 64"
   version="1.1"
   id="svg5"
   xml:space="preserve"
   inkscape:version="1.2.2 (b0a8486541, 2022-12-01)"
   sodipodi:docname="add_funds.svg"
   xmlns:inkscape="http://www.inkscape.org/namespaces/inkscape"
   xmlns:sodipodi="http://sodipodi.sourceforge.net/DTD/sodipodi-0.dtd"
   xmlns:xlink="http://www.w3.org/1999/xlink"
   xmlns="http://www.w3.org/2000/svg"
   xmlns:svg="http://www.w3.org/2000/svg"><sodipodi:namedview
     id="namedview7"
     pagecolor="#505050"
     bordercolor="#eeeeee"
     borderopacity="1"
     inkscape:showpageshadow="0"
     inkscape:pageopacity="0"
     inkscape:pagecheckerboard="0"
     inkscape:deskcolor="#505050"
     inkscape:document-units="mm"
     showgrid="false"
     inkscape:zoom="4.2381568"
     inkscape:cx="60.757544"
     inkscape:cy="23.12326"
     inkscape:window-width="1920"
     inkscape:window-height="1013"
     inkscape:window-x="0"
     inkscape:window-y="0"
     inkscape:window-maximized="1"
     inkscape:current-layer="layer1" /><defs
     id="defs2"><linearGradient
       id="linearGradient8365"
       inkscape:swatch="solid"><stop
         style="stop-color:#000000;stop-opacity:1;"
         offset="0"
         id="stop8363" /></linearGradient><radialGradient
       inkscape:collect="always"
       xlink:href="#linearGradient8365"
       id="radialGradient8404"
       cx="202.24422"
       cy="113.55507"
       fx="202.24422"
       fy="113.55507"
       r="7.3391113"
       gradientTransform="matrix(3.742149,0,0,2.9152798,-597.34351,-198.87928)"
       gradientUnits="userSpaceOnUse" /></defs><g
     inkscape:label="Layer 1"
     inkscape:groupmode="layer"
     id="layer1"
     transform="translate(-124.01336,-98.960127)"><g
       id="g8238"
       transform="translate(-83.508618,-54.523184)" /><path
       id="rect8359"
       style="fill:#ffffff;fill-rule:evenodd;stroke:#000000;stroke-width:3.47393;stroke-linejoin:round"
       d="m 134.59213,104.90303 h 39.91795 c 2.48401,0 4.48377,1.99976 4.48377,4.48377 v 37.99625 c 0,2.484 -1.99976,4.48376 -4.48377,4.48376 h -39.91795 c -2.484,0 -4.48376,-1.99976 -4.48376,-4.48376 V 109.3868 c 0,-2.48401 1.99976,-4.48377 4.48376,-4.48377 z" /><path
       id="rect8361"
       style="fill:#ffffff;fill-rule:evenodd;stroke:url(#radialGradient8404);stroke-width:3.27662;stroke-linejoin:round"
       d="m 137.48312,112.36541 h 44.00283 c 2.09453,0 3.78074,1.68621 3.78074,3.78074 v 32.03871 c 0,2.09453 -1.68621,3.78074 -3.78074,3.78074 h -44.00283 c -2.09453,0 -3.78074,-1.68621 -3.78074,-3.78074 v -32.03871 c 0,-2.09453 1.68621,-3.78074 3.78074,-3.78074 z" /><path
       id="rect8476"
       style="fill:#ffffff;fill-rule:evenodd;stroke-width:2.83489;stroke-linejoin:round"
       d="m 132.06404,109.40424 h 8.07757 v 40.82111 h -8.07757 z" /><path
       id="path8596"
       style="fill-rule:evenodd;stroke-width:3.19769;stroke-linejoin:round"
       d="m 179.63643,132.1655 a 2.0216534,2.0216534 0 0 1 -2.02165,2.02165 2.0216534,2.0216534 0 0 1 -2.02166,-2.02165 2.0216534,2.0216534 0 0 1 2.02166,-2.02166 2.0216534,2.0216534 0 0 1 2.02165,2.02166 z" /><path
       id="path8598"
       style="fill:#ffffff;fill-rule:evenodd;stroke:#c0038b;stroke-width:2.47563;stroke-linejoin:round"
       d="m 150.9297,145.28204 a 12.285075,12.234321 0 0 1 -12.28508,12.23432 12.285075,12.234321 0 0 1 -12.28507,-12.23432 12.285075,12.234321 0 0 1 12.28507,-12.23432 12.285075,12.234321 0 0 1 12.28508,12.23432 z" /><path
       d="m 143.52128,146.29036 h -3.52803 v 3.40818 h -2.67778 v -3.40818 h -3.54757 v -2.17491 h 3.54757 v -3.24985 h 2.67778 v 3.24985 h 3.52803 z"
       id="path252"
       style="font-weight:bold;font-size:18.4817px;line-height:1.25;font-family:Roboto;-inkscape-font-specification:'Roboto, Bold';letter-spacing:0px;word-spacing:0px;fill:#c0028b;stroke-width:1.1551" /></g></svg>
