<?xml version="1.0" encoding="UTF-8" standalone="no"?>
<!-- Created with Inkscape (http://www.inkscape.org/) -->

<svg
   width="64"
   height="64"
   viewBox="0 0 64 64"
   version="1.1"
   id="svg5"
   xml:space="preserve"
   inkscape:version="1.2.2 (b0a8486541, 2022-12-01)"
   sodipodi:docname="send_funds.svg"
   xmlns:inkscape="http://www.inkscape.org/namespaces/inkscape"
   xmlns:sodipodi="http://sodipodi.sourceforge.net/DTD/sodipodi-0.dtd"
   xmlns="http://www.w3.org/2000/svg"
   xmlns:svg="http://www.w3.org/2000/svg"><sodipodi:namedview
     id="namedview7"
     pagecolor="#505050"
     bordercolor="#eeeeee"
     borderopacity="1"
     inkscape:showpageshadow="0"
     inkscape:pageopacity="0"
     inkscape:pagecheckerboard="0"
     inkscape:deskcolor="#505050"
     inkscape:document-units="mm"
     showgrid="false"
     inkscape:zoom="8.4763136"
     inkscape:cx="51.909358"
     inkscape:cy="39.285946"
     inkscape:window-width="1920"
     inkscape:window-height="1013"
     inkscape:window-x="0"
     inkscape:window-y="0"
     inkscape:window-maximized="1"
     inkscape:current-layer="layer1" /><defs
     id="defs2"><linearGradient
       id="linearGradient8365"
       inkscape:swatch="solid"><stop
         style="stop-color:#000000;stop-opacity:1;"
         offset="0"
         id="stop8363" /></linearGradient><marker
       style="overflow:visible"
       id="TriangleStart"
       refX="0"
       refY="0"
       orient="auto-start-reverse"
       inkscape:stockid="TriangleStart"
       markerWidth="1.6"
       markerHeight="3.4000001"
       viewBox="0 0 5.3244081 6.1553851"
       inkscape:isstock="true"
       inkscape:collect="always"
       preserveAspectRatio="none"><path
         transform="scale(0.5)"
         style="fill:context-stroke;fill-rule:evenodd;stroke:context-stroke;stroke-width:1pt"
         d="M 5.77,0 -2.88,5 V -5 Z"
         id="path135" /></marker></defs><g
     inkscape:label="Layer 1"
     inkscape:groupmode="layer"
     id="layer1"
     transform="translate(-124.01336,-98.960127)"><g
       id="g8238"
       transform="translate(-83.508618,-54.523184)" /><path
       id="rect466"
       style="fill:#ffffff;fill-rule:evenodd;stroke:#000000;stroke-width:3.57717"
       d="m 142.97746,100.74872 h 26.0718 c 2.65478,0 4.79201,2.13724 4.79201,4.79202 v 50.83878 c 0,2.65478 -2.13723,4.79202 -4.79201,4.79202 h -26.0718 c -2.65477,0 -4.79201,-2.13724 -4.79201,-4.79202 v -50.83878 c 0,-2.65478 2.13723,-4.79202 4.79201,-4.79202 z" /><g
       aria-label="$"
       transform="matrix(1.0196676,0,0,0.98071176,4.9496662,0)"
       id="text522"
       style="font-weight:900;font-size:27.9237px;line-height:1.25;font-family:Roboto;-inkscape-font-specification:'Roboto, Heavy';letter-spacing:0px;word-spacing:0px;fill:#c20c8f;stroke-width:0.872616"><path
         d="m 141.74145,136.49826 c 1.39618,1.22865 3.51838,2.01051 5.33342,2.20597 v 4.07686 h 2.73653 v -4.16063 c 3.09953,-0.53055 4.74703,-2.40143 4.74703,-4.74703 0,-5.08211 -8.1258,-4.8308 -8.1258,-6.81338 0,-0.83771 0.67017,-1.28449 1.92673,-1.28449 1.53581,0 2.56898,0.4747 3.8814,1.39619 l 2.03843,-2.34559 c -1.14487,-1.1728 -2.54106,-2.03843 -4.46779,-2.28975 v -3.63008 h -2.73653 v 3.65801 c -2.82029,0.44678 -4.57948,2.15012 -4.57948,4.55156 0,5.13796 8.15372,4.7191 8.15372,7.0647 0,0.78186 -0.72602,1.25656 -2.06636,1.25656 -1.75919,0 -3.29499,-0.64224 -5.05419,-1.73127 z"
         style="font-weight:bold;font-family:'Source Code Pro';-inkscape-font-specification:'Source Code Pro, Bold'"
         id="path479" /></g><path
       id="path2648"
       style="fill-rule:evenodd;stroke-width:2.86564"
       d="m 159.91435,152.68192 a 3.9009898,3.9009898 0 0 1 -3.90099,3.90099 3.9009898,3.9009898 0 0 1 -3.90099,-3.90099 3.9009898,3.9009898 0 0 1 3.90099,-3.90099 3.9009898,3.9009898 0 0 1 3.90099,3.90099 z" /><path
       style="fill:#c0028b;fill-opacity:1;stroke:#c0028b;stroke-width:3.8586;stroke-linecap:butt;stroke-linejoin:round;stroke-dasharray:none;stroke-opacity:1;marker-end:url(#TriangleStart)"
       d="m 164.34255,127.20666 h 18.4682"
       id="path2821"
       sodipodi:nodetypes="cc"
       inkscape:label="path2821" /><path
       style="fill:#c0028b;fill-opacity:1;stroke:none;stroke-width:1px;stroke-linecap:butt;stroke-linejoin:miter;stroke-opacity:1"
       d="m 180.70035,120.64704 6.22794,6.55962 -6.22776,6.55962 z"
       id="path675" /></g></svg>
